<mxfile host="app.diagrams.net" modified="2024-07-04T04:25:43.465Z" agent="Mozilla/5.0 (Windows NT 10.0; Win64; x64) AppleWebKit/537.36 (KHTML, like Gecko) Chrome/125.0.0.0 Safari/537.36 Edg/125.0.0.0" etag="vipgT91UudzJmWu0gPpB" version="24.6.4" type="github">
  <diagram name="Страница — 1" id="3UYa8eNHm0zkkz9ugudo">
    <mxGraphModel dx="1386" dy="751" grid="1" gridSize="10" guides="1" tooltips="1" connect="1" arrows="1" fold="1" page="1" pageScale="1" pageWidth="827" pageHeight="1169" math="0" shadow="0">
      <root>
        <mxCell id="0" />
        <mxCell id="1" parent="0" />
        <mxCell id="KBp-xDSjl129Jcb2t5zg-3" value="" style="edgeStyle=orthogonalEdgeStyle;rounded=0;orthogonalLoop=1;jettySize=auto;html=1;" edge="1" parent="1" source="KBp-xDSjl129Jcb2t5zg-1" target="KBp-xDSjl129Jcb2t5zg-2">
          <mxGeometry relative="1" as="geometry" />
        </mxCell>
        <mxCell id="KBp-xDSjl129Jcb2t5zg-1" value="Turn on" style="strokeWidth=2;html=1;shape=mxgraph.flowchart.terminator;whiteSpace=wrap;fontSize=17;" vertex="1" parent="1">
          <mxGeometry x="359" y="60" width="110" height="70" as="geometry" />
        </mxCell>
        <mxCell id="KBp-xDSjl129Jcb2t5zg-6" value="" style="edgeStyle=orthogonalEdgeStyle;rounded=0;orthogonalLoop=1;jettySize=auto;html=1;" edge="1" parent="1" source="KBp-xDSjl129Jcb2t5zg-2" target="KBp-xDSjl129Jcb2t5zg-4">
          <mxGeometry relative="1" as="geometry" />
        </mxCell>
        <mxCell id="KBp-xDSjl129Jcb2t5zg-2" value="Plug in" style="rounded=1;whiteSpace=wrap;html=1;fontSize=17;" vertex="1" parent="1">
          <mxGeometry x="354" y="180" width="120" height="60" as="geometry" />
        </mxCell>
        <mxCell id="KBp-xDSjl129Jcb2t5zg-8" value="" style="edgeStyle=orthogonalEdgeStyle;rounded=0;orthogonalLoop=1;jettySize=auto;html=1;" edge="1" parent="1" source="KBp-xDSjl129Jcb2t5zg-4" target="KBp-xDSjl129Jcb2t5zg-7">
          <mxGeometry relative="1" as="geometry" />
        </mxCell>
        <mxCell id="KBp-xDSjl129Jcb2t5zg-4" value="Pres the button" style="rounded=1;whiteSpace=wrap;html=1;fontSize=17;" vertex="1" parent="1">
          <mxGeometry x="354" y="310" width="120" height="60" as="geometry" />
        </mxCell>
        <mxCell id="KBp-xDSjl129Jcb2t5zg-7" value="End" style="strokeWidth=2;html=1;shape=mxgraph.flowchart.terminator;whiteSpace=wrap;fontSize=17;" vertex="1" parent="1">
          <mxGeometry x="359" y="430" width="110" height="70" as="geometry" />
        </mxCell>
      </root>
    </mxGraphModel>
  </diagram>
</mxfile>
